<svg version="1.1" id="Layer_1" xmlns="http://www.w3.org/2000/svg" xmlns:xlink="http://www.w3.org/1999/xlink" x="0px" y="0px"
	 width="100%" viewBox="0 0 241 237" enable-background="new 0 0 241 237" xml:space="preserve">
<path fill="#010101" opacity="1.000000" stroke="none" 
	d="
M242.000000,89.000000 
	C242.000000,139.000000 242.000000,188.500000 242.000000,238.000000 
	C161.666672,238.000000 81.333336,238.000000 1.000000,238.000000 
	C1.000000,159.000000 1.000000,80.000000 1.000000,1.000000 
	C81.333336,1.000000 161.666672,1.000000 242.000000,1.000000 
	C242.000000,30.166666 242.000000,59.333332 242.000000,89.000000 
M146.864883,224.183899 
	C152.916794,222.145096 158.968704,220.106277 165.761444,218.042374 
	C171.573105,214.849792 177.384766,211.657196 183.848740,208.201111 
	C189.294586,203.624329 194.740448,199.047546 200.798782,194.142883 
	C206.237030,186.847565 211.675293,179.552261 217.698776,171.871841 
	C226.054718,157.217865 230.769608,141.458084 231.623520,124.625908 
	C232.723099,102.951210 228.666885,82.442955 217.009064,63.074505 
	C211.404877,55.896908 205.800705,48.719307 199.911224,40.963249 
	C195.022079,36.939682 190.132935,32.916115 184.911102,28.281805 
	C179.942780,25.514973 174.974442,22.748140 169.551651,19.444996 
	C164.084869,17.479280 158.618088,15.513565 152.541290,13.140244 
	C145.696503,12.022038 138.851730,10.903832 131.253250,9.447414 
	C125.481583,9.562761 119.709915,9.678108 113.069405,9.578650 
	C107.643608,10.522413 102.217804,11.466176 95.984779,12.471958 
	C90.178276,14.576138 84.371780,16.680319 77.869720,18.887602 
	C73.215599,21.501518 68.561478,24.115437 63.225357,26.897665 
	C58.436337,30.796932 53.647316,34.696198 48.235531,38.897812 
	C43.434265,44.576199 38.632996,50.254585 33.229965,56.255833 
	C19.289841,76.893822 13.125329,99.633957 14.536661,124.504242 
	C15.693443,144.888855 21.790424,163.499619 34.006653,180.741333 
	C38.969543,186.254837 43.932438,191.768341 49.166409,197.881088 
	C53.387863,201.173584 57.609318,204.466064 62.255875,208.216675 
	C67.504051,211.103226 72.752228,213.989777 78.583183,217.305878 
	C84.661995,219.403061 90.740799,221.500259 97.496254,223.920868 
	C102.664215,224.608749 107.832169,225.296631 113.791672,226.269257 
	C118.854347,226.316833 123.917015,226.364410 129.775742,226.586761 
	C135.202026,225.774521 140.628326,224.962296 146.864883,224.183899 
z"/>
<path fill="#9FC6F7" opacity="1.000000" stroke="none" 
	d="
M200.186310,194.470764 
	C194.740448,199.047546 189.294586,203.624329 183.347351,207.917480 
	C182.563995,205.345505 182.040451,203.057556 182.036469,200.768707 
	C181.982254,169.608063 182.037231,138.447159 181.916779,107.286888 
	C181.908707,105.194344 180.708405,103.106400 180.202744,100.685066 
	C183.415115,96.208649 183.637314,91.732628 182.234344,86.823738 
	C183.052567,84.618187 183.922119,82.619797 183.937042,80.615051 
	C184.051590,65.233017 183.957947,49.849491 184.054901,34.467228 
	C184.066635,32.606579 184.829208,30.750662 185.243790,28.892551 
	C190.132935,32.916115 195.022079,36.939682 199.878036,41.667221 
	C199.563278,44.325802 199.037827,46.280167 199.035889,48.235050 
	C198.989883,94.714684 198.983459,141.194397 199.050537,187.673965 
	C199.053818,189.940109 199.790924,192.205185 200.186310,194.470764 
z"/>
<path fill="#9AC1FA" opacity="1.000000" stroke="none" 
	d="
M200.492554,194.306824 
	C199.790924,192.205185 199.053818,189.940109 199.050537,187.673965 
	C198.983459,141.194397 198.989883,94.714684 199.035889,48.235050 
	C199.037827,46.280167 199.563278,44.325802 200.020691,41.956451 
	C205.800705,48.719307 211.404877,55.896908 216.888428,63.811378 
	C216.512115,66.333473 216.036011,68.118378 216.033508,69.903954 
	C215.988464,101.928215 215.979889,133.952591 216.048477,165.976761 
	C216.052963,168.070923 216.742630,170.163589 217.113556,172.256958 
	C211.675293,179.552261 206.237030,186.847565 200.492554,194.306824 
z"/>
<path fill="#C2F1DF" opacity="1.000000" stroke="none" 
	d="
M48.858295,38.595467 
	C53.647316,34.696198 58.436337,30.796932 63.590401,27.235317 
	C64.160301,31.462221 64.497543,35.350033 64.539925,39.241055 
	C64.608635,45.549858 64.393448,51.861782 64.464432,58.170521 
	C64.548126,65.608490 64.808853,73.044464 64.560783,80.530655 
	C62.750637,80.761627 61.372540,80.943253 59.736572,81.158859 
	C61.264374,87.821182 62.659527,93.905075 63.777176,100.300919 
	C63.333111,102.582443 63.023701,104.551834 63.021496,106.521576 
	C62.989994,134.650040 63.062668,162.778824 62.947075,190.906860 
	C62.923985,196.525513 62.220520,202.141403 61.830780,207.758560 
	C57.609318,204.466064 53.387863,201.173584 49.070004,197.142197 
	C49.315731,193.119263 49.951199,189.835617 49.955818,186.551102 
	C50.020844,140.342499 50.021992,94.133751 49.950951,47.925163 
	C49.946167,44.814709 49.238861,41.705341 48.858295,38.595467 
z"/>
<path fill="#C5F5DD" opacity="1.000000" stroke="none" 
	d="
M48.546913,38.746639 
	C49.238861,41.705341 49.946167,44.814709 49.950951,47.925163 
	C50.021992,94.133751 50.020844,140.342499 49.955818,186.551102 
	C49.951199,189.835617 49.315731,193.119263 48.934464,196.842575 
	C43.932438,191.768341 38.969543,186.254837 34.205944,180.131226 
	C34.936321,176.602203 35.920868,173.684647 35.929531,170.764191 
	C36.035702,134.967255 36.041889,99.169754 35.905903,63.373032 
	C35.896473,60.890423 34.554192,58.412876 33.831726,55.932976 
	C38.632996,50.254585 43.434265,44.576199 48.546913,38.746639 
z"/>
<path fill="#C8F9D8" opacity="1.000000" stroke="none" 
	d="
M33.530846,56.094406 
	C34.554192,58.412876 35.896473,60.890423 35.905903,63.373032 
	C36.041889,99.169754 36.035702,134.967255 35.929531,170.764191 
	C35.920868,173.684647 34.936321,176.602203 34.120384,179.797531 
	C21.790424,163.499619 15.693443,144.888855 14.536661,124.504242 
	C13.125329,99.633957 19.289841,76.893822 33.530846,56.094406 
z"/>
<path fill="#B1DDEB" opacity="1.000000" stroke="none" 
	d="
M128.979691,226.411987 
	C123.917015,226.364410 118.854347,226.316833 113.395844,225.659241 
	C113.000008,198.995041 113.024231,172.940781 112.957428,146.886765 
	C112.951607,144.620056 112.346191,142.354874 112.120865,139.755219 
	C114.211197,136.073608 116.199959,132.725784 118.455200,129.148682 
	C120.765793,125.931297 122.809906,122.943214 125.159973,120.202271 
	C125.977249,122.651138 126.899704,124.847145 126.930435,127.055557 
	C127.082870,138.008682 126.921402,148.966248 127.082336,159.919128 
	C127.107346,161.620544 128.226974,163.305878 128.868591,165.348495 
	C128.930740,167.182312 128.964737,168.666306 128.999176,170.609528 
	C128.992981,189.516495 128.986328,207.964249 128.979691,226.411987 
z"/>
<path fill="#AAD5ED" opacity="1.000000" stroke="none" 
	d="
M132.006943,9.785626 
	C138.851730,10.903832 145.696503,12.022038 152.809052,13.841390 
	C153.051392,33.188641 152.996857,51.834839 153.054199,70.480690 
	C153.058929,72.022339 153.821793,73.561653 153.997223,75.354675 
	C148.410767,77.998619 145.900543,82.325958 145.351135,87.982727 
	C145.369507,87.988480 145.342087,87.987434 145.085678,87.634605 
	C141.971680,87.077126 139.114075,86.872475 136.402267,86.376602 
	C137.336792,84.569397 138.125534,83.053421 139.159943,81.065269 
	C136.399887,80.841194 134.194870,80.662178 131.991486,80.046906 
	C131.997711,56.335636 132.002335,33.060631 132.006943,9.785626 
z"/>
<path fill="#B3E1E8" opacity="1.000000" stroke="none" 
	d="
M96.792007,12.409939 
	C102.217804,11.466176 107.643608,10.522413 113.519714,10.167920 
	C113.980026,36.089413 113.947548,61.421814 114.057449,86.753601 
	C114.070206,89.695389 114.871941,92.633751 115.205444,95.882111 
	C112.156654,101.047005 109.210320,105.903481 106.194000,110.380417 
	C104.344421,103.316826 102.657875,96.605446 100.710457,89.970650 
	C100.297096,88.562355 98.932076,87.433372 97.955399,85.780579 
	C97.936806,82.289368 97.994247,79.193283 97.995628,76.097176 
	C98.004082,57.131092 98.040215,38.164810 97.946579,19.199190 
	C97.935402,16.934263 97.194611,14.672935 96.792007,12.409939 
z"/>
<path fill="#B1DDEB" opacity="1.000000" stroke="none" 
	d="
M115.307892,95.573700 
	C114.871941,92.633751 114.070206,89.695389 114.057449,86.753601 
	C113.947548,61.421814 113.980026,36.089413 113.954132,10.275323 
	C119.709915,9.678108 125.481583,9.562761 131.630096,9.616520 
	C132.002335,33.060631 131.997711,56.335636 131.558197,80.104805 
	C126.259995,79.863861 123.062157,81.651901 121.023308,86.316788 
	C119.585434,89.606651 117.245232,92.502144 115.307892,95.573700 
z"/>
<path fill="#A3CBF4" opacity="1.000000" stroke="none" 
	d="
M180.062622,101.016319 
	C180.708405,103.106400 181.908707,105.194344 181.916779,107.286888 
	C182.037231,138.447159 181.982254,169.608063 182.036469,200.768707 
	C182.040451,203.057556 182.563995,205.345505 183.021210,208.049225 
	C177.384766,211.657196 171.573105,214.849792 165.385620,217.581940 
	C165.000000,203.728714 164.990173,190.335938 165.029343,176.544739 
	C169.693695,155.063065 174.309067,133.979813 179.102448,112.083435 
	C176.083405,112.083435 173.650269,112.083435 171.212372,111.698730 
	C171.617737,109.328453 172.027893,107.342888 172.777405,105.296326 
	C175.432053,103.828995 177.747330,102.422661 180.062622,101.016319 
z"/>
<path fill="#95BAFA" opacity="1.000000" stroke="none" 
	d="
M217.406158,172.064392 
	C216.742630,170.163589 216.052963,168.070923 216.048477,165.976761 
	C215.979889,133.952591 215.988464,101.928215 216.033508,69.903954 
	C216.036011,68.118378 216.512115,66.333473 216.943481,64.149750 
	C228.666885,82.442955 232.723099,102.951210 231.623520,124.625908 
	C230.769608,141.458084 226.054718,157.217865 217.406158,172.064392 
z"/>
<path fill="#B9E7E5" opacity="1.000000" stroke="none" 
	d="
M96.388397,12.440948 
	C97.194611,14.672935 97.935402,16.934263 97.946579,19.199190 
	C98.040215,38.164810 98.004082,57.131092 97.995628,76.097176 
	C97.994247,79.193283 97.936806,82.289368 97.609497,85.819626 
	C96.622269,86.282959 95.930824,86.312126 95.116020,85.938675 
	C94.586578,81.419083 92.242981,80.160614 88.312096,80.613907 
	C85.909378,80.890976 83.435036,80.546936 80.993835,80.045670 
	C80.996460,61.325138 81.072960,43.040043 80.892883,24.757473 
	C80.873199,22.759033 79.376770,20.775139 78.565277,18.784496 
	C84.371780,16.680319 90.178276,14.576138 96.388397,12.440948 
z"/>
<path fill="#BEEDE1" opacity="1.000000" stroke="none" 
	d="
M62.043327,207.987610 
	C62.220520,202.141403 62.923985,196.525513 62.947075,190.906860 
	C63.062668,162.778824 62.989994,134.650040 63.021496,106.521576 
	C63.023701,104.551834 63.333111,102.582443 64.004890,100.591446 
	C65.801704,105.541710 66.682739,110.666145 68.464561,115.455452 
	C73.146011,128.038589 73.506508,140.496902 69.320625,153.311386 
	C67.515900,158.836304 66.911385,164.753265 65.704308,170.778259 
	C68.673340,170.935272 70.807236,171.048126 72.913818,171.541565 
	C72.640816,173.459564 72.395111,174.996979 72.111237,176.773270 
	C74.402672,176.922882 76.199310,177.040192 77.997208,177.616272 
	C77.999115,191.008804 77.999756,203.942566 78.000397,216.876312 
	C72.752228,213.989777 67.504051,211.103226 62.043327,207.987610 
z"/>
<path fill="#B5E1E7" opacity="1.000000" stroke="none" 
	d="
M112.019287,140.088989 
	C112.346191,142.354874 112.951607,144.620056 112.957428,146.886765 
	C113.024231,172.940781 113.000008,198.995041 113.000061,225.516876 
	C107.832169,225.296631 102.664215,224.608749 97.200638,223.252869 
	C96.934586,207.444229 96.964149,192.303589 97.327133,177.098938 
	C98.108131,176.969971 98.555702,176.905029 99.396431,176.888336 
	C100.891045,175.989563 102.679039,175.221069 102.979385,174.065811 
	C104.586380,167.884476 105.640526,161.559586 107.242378,155.376709 
	C108.579712,150.214737 110.408272,145.180054 112.019287,140.088989 
z"/>
<path fill="#A6CFF2" opacity="1.000000" stroke="none" 
	d="
M154.232391,75.102051 
	C153.821793,73.561653 153.058929,72.022339 153.054199,70.480690 
	C152.996857,51.834839 153.051392,33.188641 153.114059,14.045193 
	C158.618088,15.513565 164.084869,17.479280 169.777313,20.183010 
	C169.998413,38.960430 169.993866,56.999840 169.575073,75.011185 
	C164.184692,75.022766 159.208557,75.062408 154.232391,75.102051 
z"/>
<path fill="#BEECE2" opacity="1.000000" stroke="none" 
	d="
M78.217499,18.836048 
	C79.376770,20.775139 80.873199,22.759033 80.892883,24.757473 
	C81.072960,43.040043 80.996460,61.325138 80.530556,80.097420 
	C75.041809,80.550667 70.017319,80.515984 64.992828,80.481308 
	C64.808853,73.044464 64.548126,65.608490 64.464432,58.170521 
	C64.393448,51.861782 64.608635,45.549858 64.539925,39.241055 
	C64.497543,35.350033 64.160301,31.462221 63.931400,27.151161 
	C68.561478,24.115437 73.215599,21.501518 78.217499,18.836048 
z"/>
<path fill="#ACD6EC" opacity="1.000000" stroke="none" 
	d="
M129.377716,226.499374 
	C128.986328,207.964249 128.992981,189.516495 129.430573,170.549500 
	C131.888382,170.079865 133.915268,170.129486 135.908447,170.568207 
	C135.587601,172.806076 135.300461,174.654861 134.912308,177.154037 
	C139.095779,177.154037 142.547195,177.154037 145.998993,177.613037 
	C146.017807,193.431366 146.036209,208.790710 146.054611,224.150055 
	C140.628326,224.962296 135.202026,225.774521 129.377716,226.499374 
z"/>
<path fill="#A8D1F0" opacity="1.000000" stroke="none" 
	d="
M146.459747,224.166977 
	C146.036209,208.790710 146.017807,193.431366 146.464417,177.555573 
	C152.946396,177.007141 158.963379,176.975143 164.980347,176.943146 
	C164.990173,190.335938 165.000000,203.728714 165.015198,217.594482 
	C158.968704,220.106277 152.916794,222.145096 146.459747,224.166977 
z"/>
<path fill="#B9E7E5" opacity="1.000000" stroke="none" 
	d="
M96.993713,177.162949 
	C96.964149,192.303589 96.934586,207.444229 96.862312,223.091156 
	C90.740799,221.500259 84.661995,219.403061 78.291794,217.091095 
	C77.999756,203.942566 77.999115,191.008804 78.462585,177.556549 
	C84.949036,177.079697 90.971375,177.121323 96.993713,177.162949 
z"/>
<path fill="#A2CAF4" opacity="1.000000" stroke="none" 
	d="
M169.989319,75.039246 
	C169.993866,56.999840 169.998413,38.960430 170.004547,20.451164 
	C174.974442,22.748140 179.942780,25.514973 185.077454,28.587179 
	C184.829208,30.750662 184.066635,32.606579 184.054901,34.467228 
	C183.957947,49.849491 184.051590,65.233017 183.937042,80.615051 
	C183.922119,82.619797 183.052567,84.618187 181.964188,86.634789 
	C179.668518,85.277649 177.987518,83.905243 176.182495,82.235558 
	C174.035431,79.638603 172.012375,77.338928 169.989319,75.039246 
z"/>
<path fill="#667D92" opacity="1.000000" stroke="none" 
	d="
M176.306519,82.532829 
	C177.987518,83.905243 179.668518,85.277649 181.619659,86.839005 
	C183.637314,91.732628 183.415115,96.208649 180.202744,100.685066 
	C177.747330,102.422661 175.432053,103.828995 172.273331,105.227608 
	C166.890976,105.135826 162.352066,105.051758 157.613708,104.718491 
	C155.918823,102.546608 154.423370,100.623924 153.347076,98.758682 
	C169.120132,100.970627 176.147568,95.893936 176.306519,82.532829 
z"/>
<path fill="#0AB3E4" opacity="1.000000" stroke="none" 
	d="
M64.560783,80.530655 
	C70.017319,80.515984 75.041809,80.550667 80.529587,80.533600 
	C83.435036,80.546936 85.909378,80.890976 88.312096,80.613907 
	C92.242981,80.160614 94.586578,81.419083 95.136322,86.283066 
	C97.852722,96.415642 100.425461,105.801193 103.322334,116.369194 
	C104.752510,113.642082 105.508240,112.201019 106.263977,110.759964 
	C109.210320,105.903481 112.156654,101.047005 115.205444,95.882111 
	C117.245232,92.502144 119.585434,89.606651 121.023308,86.316788 
	C123.062157,81.651901 126.259995,79.863861 131.556580,80.541061 
	C134.194870,80.662178 136.399887,80.841194 139.159943,81.065269 
	C138.125534,83.053421 137.336792,84.569397 136.147247,86.650162 
	C128.773422,98.110413 121.800407,109.005882 114.565781,120.110947 
	C110.593300,126.535149 105.705811,132.354980 103.456230,139.059891 
	C100.334206,148.365112 99.192482,158.334747 97.093750,168.415649 
	C95.567207,169.542404 94.173843,170.845825 92.728432,170.906372 
	C86.140663,171.182251 79.538269,171.108826 72.941132,171.160980 
	C70.807236,171.048126 68.673340,170.935272 65.704308,170.778259 
	C66.911385,164.753265 67.515900,158.836304 69.320625,153.311386 
	C73.506508,140.496902 73.146011,128.038589 68.464561,115.455452 
	C66.682739,110.666145 65.801704,105.541710 64.282410,100.279480 
	C62.659527,93.905075 61.264374,87.821182 59.736572,81.158859 
	C61.372540,80.943253 62.750637,80.761627 64.560783,80.530655 
z"/>
<path fill="#F47E14" opacity="1.000000" stroke="none" 
	d="
M157.813141,104.967690 
	C162.352066,105.051758 166.890976,105.135826 171.933975,105.288605 
	C172.027893,107.342888 171.617737,109.328453 171.096466,112.072334 
	C167.145172,130.488647 163.234406,148.131851 159.530792,165.818451 
	C158.874451,168.952835 157.756165,170.237274 154.360077,170.096298 
	C148.232468,169.841949 142.082687,170.122147 135.942154,170.179092 
	C133.915268,170.129486 131.888382,170.079865 129.430115,170.090271 
	C128.964737,168.666306 128.930740,167.182312 128.995026,164.944397 
	C131.010071,154.970612 132.948288,145.755157 134.837891,136.529755 
	C136.961349,126.162712 139.040894,115.786674 141.593781,105.350319 
	C147.303055,105.179947 152.558105,105.073822 157.813141,104.967690 
z"/>
<path fill="#AED8EB" opacity="1.000000" stroke="none" 
	d="
M141.139542,105.414558 
	C139.040894,115.786674 136.961349,126.162712 134.837891,136.529755 
	C132.948288,145.755157 131.010071,154.970612 128.966858,164.594559 
	C128.226974,163.305878 127.107346,161.620544 127.082336,159.919128 
	C126.921402,148.966248 127.082870,138.008682 126.930435,127.055557 
	C126.899704,124.847145 125.977249,122.651138 125.304817,119.887985 
	C129.651337,112.481888 134.158966,105.637230 138.989288,99.039917 
	C139.921158,101.329704 140.530350,103.372131 141.139542,105.414558 
z"/>
<path fill="#6C898E" opacity="1.000000" stroke="none" 
	d="
M97.202957,168.019943 
	C99.192482,158.334747 100.334206,148.365112 103.456230,139.059891 
	C105.705811,132.354980 110.593300,126.535149 114.902626,120.312820 
	C116.396957,123.329384 117.292839,126.353676 118.188721,129.377960 
	C116.199959,132.725784 114.211197,136.073608 112.120865,139.755219 
	C110.408272,145.180054 108.579712,150.214737 107.242378,155.376709 
	C105.640526,161.559586 104.586380,167.884476 102.979385,174.065811 
	C102.679039,175.221069 100.891045,175.989563 99.395416,176.461060 
	C98.401817,173.330368 97.802383,170.675156 97.202957,168.019943 
z"/>
<path fill="#698490" opacity="1.000000" stroke="none" 
	d="
M118.455200,129.148682 
	C117.292839,126.353676 116.396957,123.329384 115.164230,120.103226 
	C121.800407,109.005882 128.773422,98.110413 136.001465,86.941383 
	C139.114075,86.872475 141.971680,87.077126 144.919403,87.949005 
	C142.895203,92.008339 140.780899,95.400452 138.666580,98.792564 
	C134.158966,105.637230 129.651337,112.481888 124.998871,119.640839 
	C122.809906,122.943214 120.765793,125.931297 118.455200,129.148682 
z"/>
<path fill="#F47E14" opacity="1.000000" stroke="none" 
	d="
M176.182495,82.235558 
	C176.147568,95.893936 169.120132,100.970627 153.108337,98.556641 
	C147.765350,96.452003 145.926559,92.643806 145.332748,87.976967 
	C145.900543,82.325958 148.410767,77.998619 153.997223,75.354675 
	C159.208557,75.062408 164.184692,75.022766 169.575073,75.011185 
	C172.012375,77.338928 174.035431,79.638603 176.182495,82.235558 
z"/>
<path fill="#AAD2EC" opacity="1.000000" stroke="none" 
	d="
M145.351135,87.982727 
	C145.926559,92.643806 147.765350,96.452003 152.689163,98.499191 
	C154.423370,100.623924 155.918823,102.546608 157.613708,104.718491 
	C152.558105,105.073822 147.303055,105.179947 141.593781,105.350319 
	C140.530350,103.372131 139.921158,101.329704 138.989288,99.039917 
	C140.780899,95.400452 142.895203,92.008339 145.175812,88.301834 
	C145.342087,87.987434 145.369507,87.988480 145.351135,87.982727 
z"/>
<path fill="#6C898E" opacity="1.000000" stroke="none" 
	d="
M106.194000,110.380417 
	C105.508240,112.201019 104.752510,113.642082 103.322334,116.369194 
	C100.425461,105.801193 97.852722,96.415642 95.259674,86.685692 
	C95.930824,86.312126 96.622269,86.282959 97.659615,86.214745 
	C98.932076,87.433372 100.297096,88.562355 100.710457,89.970650 
	C102.657875,96.605446 104.344421,103.316826 106.194000,110.380417 
z"/>
<path fill="#667D92" opacity="1.000000" stroke="none" 
	d="
M135.908447,170.568207 
	C142.082687,170.122147 148.232468,169.841949 154.360077,170.096298 
	C157.756165,170.237274 158.874451,168.952835 159.530792,165.818451 
	C163.234406,148.131851 167.145172,130.488647 171.101257,112.457047 
	C173.650269,112.083435 176.083405,112.083435 179.102448,112.083435 
	C174.309067,133.979813 169.693695,155.063065 165.029343,176.544739 
	C158.963379,176.975143 152.946396,177.007141 146.464020,177.096588 
	C142.547195,177.154037 139.095779,177.154037 134.912308,177.154037 
	C135.300461,174.654861 135.587601,172.806076 135.908447,170.568207 
z"/>
<path fill="#708C8A" opacity="1.000000" stroke="none" 
	d="
M97.093742,168.415649 
	C97.802383,170.675156 98.401817,173.330368 99.002266,176.412842 
	C98.555702,176.905029 98.108131,176.969971 97.327133,177.098938 
	C90.971375,177.121323 84.949036,177.079697 78.461319,177.097778 
	C76.199310,177.040192 74.402672,176.922882 72.111237,176.773270 
	C72.395111,174.996979 72.640816,173.459564 72.913818,171.541565 
	C79.538269,171.108826 86.140663,171.182251 92.728432,170.906372 
	C94.173843,170.845825 95.567207,169.542404 97.093742,168.415649 
z"/>
</svg>